<?xml version="1.0" encoding="utf-8"?>
<!-- Generator: Adobe Illustrator 27.2.0, SVG Export Plug-In . SVG Version: 6.00 Build 0)  -->
<svg version="1.1" id="Calque_1" xmlns="http://www.w3.org/2000/svg" xmlns:xlink="http://www.w3.org/1999/xlink" x="0px" y="0px"
	 viewBox="0 0 1000 1000" style="enable-background:new 0 0 1000 1000;" xml:space="preserve">
<style type="text/css">
	.st0{fill:#FFFFFF;}
	.st1{fill:#E9DAC6;}
	.st2{fill:#E9DAC7;}
	.st3{fill:#EBE0D2;}
	.st4{fill:#EBDFD0;}
	.st5{fill:#E6DCD0;}
	.st6{fill:#677997;}
	.st7{fill:#697A97;}
	.st8{fill:#667792;}
	.st9{fill:#6C7D9B;}
	.st10{fill:#687998;}
	.st11{fill:#F0E6D8;}
	.st12{fill:#677791;}
	.st13{fill:#667B93;}
	.st14{fill:#667691;}
	.st15{fill:#6E7F9E;}
	.st16{fill:#667692;}
	.st17{fill:#70809E;}
	.st18{fill:#F0E8DF;}
	.st19{fill:#EFE5D8;}
	.st20{fill:#63B5C4;}
	.st21{fill:#5C9DAB;}
	.st22{fill:#5FA9B8;}
	.st23{fill:#FEFEFE;}
	.st24{fill:#68819A;}
	.st25{fill:#66A2B4;}
	.st26{fill:#586C8C;}
	.st27{fill:#7386A2;}
	.st28{fill:#63B2BF;}
	.st29{fill:#64BCCB;}
	.st30{fill:#6498A7;}
	.st31{fill:#6C9BA9;}
	.st32{fill:#5E7190;}
	.st33{fill:#7089A5;}
	.st34{fill:#7988A4;}
	.st35{fill:#63799E;}
	.st36{fill:#6D7C96;}
	.st37{fill:#378093;}
	.st38{fill:#677D99;}
	.st39{fill:#6A94A2;}
	.st40{fill:#5EB1C1;}
	.st41{fill:#667A96;}
	.st42{fill:#759AA8;}
	.st43{fill:#88B6C3;}
	.st44{fill:#7C8AA4;}
	.st45{fill:#6B7A94;}
	.st46{fill:#6E8DAA;}
	.st47{fill:#68B2C2;}
	.st48{fill:#81AAB6;}
	.st49{fill:#548597;}
	.st50{fill:#7899A5;}
	.st51{fill:#8EC8D5;}
	.st52{fill:#86A3AF;}
	.st53{fill:#8BC9D5;}
	.st54{fill:#7D8AA3;}
	.st55{fill:#70809A;}
	.st56{fill:#FDFDFE;}
	.st57{fill:#93C7D2;}
	.st58{fill:#B8CBD2;}
	.st59{fill:#848EA3;}
	.st60{fill:#A4ACBE;}
	.st61{fill:#BACAD1;}
	.st62{fill:#FEFEFD;}
	.st63{fill:#99A1B2;}
	.st64{fill:#ECDECF;}
	.st65{fill:#EBDBC9;}
	.st66{fill:#EDE1D3;}
	.st67{fill:#ECDFCF;}
	.st68{fill:#EEE5DA;}
	.st69{fill:#EFE6DC;}
	.st70{fill:#F0E9E0;}
	.st71{fill:#F5CB7D;}
	.st72{fill:#F08D73;}
	.st73{fill:#F4B14E;}
	.st74{fill:#74BAE7;}
	.st75{fill:#E9D3AA;}
	.st76{fill:#75B6E0;}
	.st77{fill:#4693D2;}
	.st78{fill:#E79D55;}
	.st79{fill:#D09B6C;}
	.st80{fill:#F1CE98;}
	.st81{fill:#F2613E;}
	.st82{fill:#6EAFDB;}
	.st83{fill:#6889AF;}
	.st84{fill:#E2AD62;}
	.st85{fill:#F2C783;}
	.st86{fill:#EADFD0;}
	.st87{fill:#6D8FB3;}
	.st88{fill:#F1C47F;}
	.st89{fill:#D79673;}
	.st90{fill:#5F8198;}
	.st91{fill:#628297;}
	.st92{fill:#6C8FB5;}
	.st93{fill:#6282A1;}
	.st94{fill:#5F7F9C;}
	.st95{fill:#6F98C0;}
	.st96{fill:#BE9567;}
	.st97{fill:#F3D6A2;}
	.st98{fill:#F3806D;}
	.st99{fill:#C0C7CD;}
	.st100{fill:#C7D3DA;}
	.st101{fill:#8DC7ED;}
	.st102{fill:#EFA77D;}
	.st103{fill:#D8A570;}
	.st104{fill:#D4DBDD;}
	.st105{fill:#7BA2C7;}
	.st106{fill:#ECE6D7;}
	.st107{fill:#FAF4E8;}
	.st108{fill:#F3C58A;}
	.st109{fill:#F6CC8E;}
	.st110{fill:#FB8766;}
	.st111{fill:#EBC58B;}
	.st112{fill:#EDAD94;}
	.st113{fill:#F2E0BD;}
	.st114{fill:#F7DAA0;}
	.st115{fill:#BFC1C6;}
	.st116{fill:#F4D6A2;}
	.st117{fill:#F2C584;}
	.st118{fill:#7C94A1;}
	.st119{fill:#9DCAE7;}
	.st120{fill:#EEACA4;}
	.st121{fill:#E5A292;}
	.st122{fill:#F5D1AD;}
	.st123{fill:#8AA5AE;}
	.st124{fill:#A0CCE7;}
	.st125{fill:#EBE3D9;}
	.st126{fill:#E8E1D7;}
	.st127{fill:#DBC297;}
	.st128{fill:#AEA69A;}
	.st129{fill:#314F79;}
	.st130{fill:#415E86;}
	.st131{fill:#405C88;}
	.st132{fill:#2F4D77;}
	.st133{fill:#3E5B84;}
	.st134{fill:#4E678A;}
	.st135{fill:#E5CBA3;}
	.st136{fill:#2C4A77;}
	.st137{fill:#3A5580;}
	.st138{fill:#3B5781;}
	.st139{fill:#3F5A82;}
	.st140{fill:#304D78;}
	.st141{fill:#3B5884;}
	.st142{fill:#496388;}
	.st143{fill:#3A5884;}
	.st144{fill:#46576D;}
	.st145{fill:#36576F;}
	.st146{fill:#428C9D;}
	.st147{fill:#3D7486;}
	.st148{fill:#3D5880;}
	.st149{fill:#375682;}
	.st150{fill:#47628C;}
	.st151{fill:#375782;}
	.st152{fill:#425F8A;}
	.st153{fill:#E8D9C3;}
	.st154{fill:#5B8D9F;}
	.st155{fill:#6A7B93;}
	.st156{fill:#57687D;}
	.st157{fill:#37A8B9;}
	.st158{fill:#2E92A3;}
	.st159{fill:#2C8D9E;}
	.st160{fill:#2D7588;}
	.st161{fill:#2D6D8B;}
	.st162{fill:#3D6F8F;}
	.st163{fill:#35889B;}
	.st164{fill:#347290;}
	.st165{fill:#557595;}
	.st166{fill:#34A7B8;}
	.st167{fill:#3199AB;}
	.st168{fill:#2D667B;}
	.st169{fill:#287386;}
	.st170{fill:#284977;}
	.st171{fill:#6CA8B6;}
	.st172{fill:#3B5782;}
	.st173{fill:#1E697D;}
	.st174{fill:#31527F;}
	.st175{fill:#4A9AAD;}
	.st176{fill:#EFE4D1;}
	.st177{fill:#FA6640;}
	.st178{fill:#DD853A;}
	.st179{fill:#47A9E4;}
	.st180{fill:#336285;}
	.st181{fill:#F1CB87;}
	.st182{fill:#2F7DBA;}
	.st183{fill:#EAC68A;}
	.st184{fill:#72919D;}
	.st185{fill:#A4C8D9;}
	.st186{fill:#7AA3C9;}
	.st187{fill:#D2B08A;}
	.st188{fill:#B67C3C;}
	.st189{fill:#D17C3B;}
	.st190{fill:#F6E1C2;}
	.st191{fill:#EABD68;}
	.st192{fill:#4D7088;}
	.st193{fill:#DBA346;}
	.st194{fill:#DED6B2;}
	.st195{fill:#3B5B6C;}
	.st196{fill:#B5C3CB;}
	.st197{fill:#939FAC;}
	.st198{fill:#3C9BD9;}
	.st199{fill:#3A7EBA;}
	.st200{fill:#366DA1;}
	.st201{fill:#D5933C;}
	.st202{fill:#ECD5B1;}
	.st203{fill:#B5AEA2;}
	.st204{fill:#2F6281;}
	.st205{fill:#F1B24F;}
	.st206{fill:#F39A46;}
	.st207{fill:#386A9C;}
	.st208{fill:#334864;}
	.st209{fill:#72808F;}
	.st210{fill:#307185;}
	.st211{fill:#FA7B42;}
	.st212{fill:#244475;}
	.st213{fill:#204170;}
	.st214{fill:#214270;}
	.st215{fill:#224272;}
	.st216{fill:#2C4C7B;}
	.st217{fill:#8BA6B0;}
</style>
<g>
	<path class="st0" d="M656.94,0c7.57,0,15.13,0,22.7,0"/>
	<path class="st1" d="M92.75,450.97c109.01,0.31,218.47,3.41,326.64,9.65c6.61,0.51,16-1.9,16.75,7.7
		c0.71,9.08-8.83,10.33-15.24,10.93c-100.93,9.87-202.35,14.78-303.73,21.57C85.98,510.29,74.54,472.46,92.75,450.97z"/>
	<path class="st2" d="M141.34,551.39c78.43-10.75,156.97-24.97,235.35-37.92c8.35-1.3,21.91-5.88,24.16,4.74
		c2.65,12.49-11.75,12.68-20.7,14.82c-83.89,20.08-166.21,45.71-248.83,70.28c-39.2,15.55-50.04-39.99-14.98-46.48
		C124.68,555.04,133.62,556.05,141.34,551.39z"/>
	<path class="st3" d="M141.34,551.39c-12.59,15.04-42.67-1.81-42.15,33.37c1.08,14.53,10.8,20.23,26.04,15.7
		c88.41-26.39,176.6-53.64,266.47-74.82c47.78-31.21-206.7,30.93-224.68,22.33c78.48-20.51,160.11-28.86,240.22-42.08
		c15.74-5.8,34.64-5.95,51.93-6.56c14.73-12.55,41.38,6.63,18.93,18.93c-122.19,25.86-242.35,59.86-361.77,95
		c-16.16,4.32-21.48,3.04-24.66-12.75C75.13,551.31,97.39,557.93,141.34,551.39z"/>
	<path class="st4" d="M384.4,593.49c-77.85,27.16-150.44,68.67-224.17,105.62c-9.52,4.46-19.28,12.76-29.02,1.16
		C79.3,652.92,282.93,610.26,313.88,589.7c58.46-21.19,116.47-45.94,177.66-58c4.51,13.23-10.19,14.39-14.03,22.38
		C447.07,568.62,415.18,579.75,384.4,593.49z"/>
	<path class="st5" d="M329.42,483.27c15.92-9.63,94.71,1.69,104.5-15.17c-13.83-13.33-44.31,5.37-59.07-10.63
		c88.35,4.98,177.63-2.96,264.87,8.73c10.04,14.58,30.17-1.76,40.72,11.97c-8.3,15.41-22.12,7.99-34.08,8.32
		c-70.96-5.77-142.16,2.11-213.17-3.09C401.59,490.51,360.45,495.49,329.42,483.27z"/>
	<path class="st6" d="M291.21,106.45c67.2,55.84,141.58,102.37,210.19,155.98c5.38,6.98-4.59,11.11-9.28,5.62
		c-67.05-49.59-138.18-94.57-201.05-149.08c-8.07-6.44-15.32-3.24-21.14,3.55c-12.72,16.35,49.11,43.04,60.78,53.61
		c50.2,33.53,101.71,64.99,152.8,97.11c4.9,4.02,18.64,8.38,14.28,16.32c-76.75-34.16-147.67-90.41-219.81-135.88
		c-9.81-8.75-34.86-17.32-22.99-33.49C265.41,111.95,276.79,98.79,291.21,106.45z"/>
	<path class="st7" d="M530.47,451.2c-143.02-17.28-286.2-31.61-428.51-54.33c-0.62-3.05-7.01-5.49-0.97-9.24
		c125.15,12.08,249.21,34.3,374.35,45.19c15.52,5.74,84.72,3.34,81.92,21.07C547.55,460.77,538.95,456.54,530.47,451.2z"/>
	<path class="st8" d="M167.24,249.76c122.27,56.13,252.86,96.95,376.52,145.81c-12.96,8.16-25.89-5.61-39.38-5.49
		c-81.79-25.88-162.94-55.08-241.69-87.54c-29.4-11.77-57.78-25.89-87.02-38.04c-28.44-14.45-24.31-2-43,15.14
		c-5.16-1.99-1.6-7.29-3.92-10.36C134.56,253.02,149.93,240.1,167.24,249.76z"/>
	<path class="st9" d="M514.19,360.26c-108.37-46.78-215.82-95.51-319.97-151.21c-17.99-9.62-18.32-13.13-4.33-28.38
		c19.85-21.64,22.11-21.96,43.41-6.08c-8.36,9.59-22.13-4.06-31.32,8.53c-20.5,22.81,32.15,31.25,45.55,42.35
		c81.69,42.35,167.09,77.82,250.68,116.16C502.95,347.87,521.27,349.83,514.19,360.26z"/>
	<path class="st10" d="M128.74,269.29c3.49,2.5,2.72,6.3,2.97,9.79c84.85,35.44,174.89,58.41,263.06,84.52
		c30.69,15.93,95.03,14.52,113.13,39.19c-81.82-11.55-163.02-41.84-242.99-65.44c-23.28-13.89-155.38-34.27-136.99-65.77
		C127.83,270.68,128.11,269.92,128.74,269.29z"/>
	<path class="st11" d="M329.42,483.27c7.56,1.24,15.85-2.86,22.75,3.13c-79.45,21.65-169.91,8.4-253.11,19.83
		c-14.63,0.63-21.18-3.91-19.51-19.13c2.93-12.12-7.33-38.27,13.21-36.13c0.92,14.25-14.03,45.11,10.26,45.38
		C178.85,495.61,253.61,484.71,329.42,483.27z"/>
	<path class="st12" d="M556.42,453.29c-8.84-11.87-23.15-2.53-33.72-8.63c-3.25-1.88-8.6,0.64-11.69-3.53
		c-3.63-13.49-33.74-4.37-42.75-17.73c0.28-0.69,0.57-1.37,0.85-2.06c27.47,11.16,212.56,4.91,190.14,46.71
		C625.99,460.66,586.26,469.22,556.42,453.29z"/>
	<path class="st13" d="M514.19,360.26c0.01-2.19,0.03-4.37,0.04-6.56c18.79-4.42,37.1,15.93,56.23,19.32
		c-6.95-10.07-25.89-6.52-26.94-23.55c43.82,10.17,84.46,36.62,125.17,56.5c3.39,1.69,5.83,4.83,5.12,9.26
		c-4.84,4.66-11.6,5.36-17.25,8.37C606.4,409.82,560.77,382.97,514.19,360.26z"/>
	<path class="st14" d="M125.95,346.61c113.18,28.97,230.76,48.69,343.17,74.73c-8.25,8.17-18.99,2.63-28.22,1.87
		c-38.26-6-76.93-11.15-114.67-20.77c-76.33-10.67-151.83-46.19-228.41-43.94C101.08,340.03,114.69,346.09,125.95,346.61z"/>
	<path class="st15" d="M511.01,165.45C495.29,143.86,382.26,55.07,401.03,36.79c40.21-33.81,86.71,70.65,117.58,92.65
		c-28.31-0.28-62.62-61.24-84.35-82c-5.46-5.63-11.88-11.51-19-4.24C400.55,64.81,520.12,138.39,511.01,165.45z"/>
	<path class="st16" d="M225.61,175.17c2.56-0.2,5.12-0.39,7.69-0.59c81.5,48.97,164.92,94.54,248.7,139.46
		c1.56,2.43,5.63,4.06,2.59,7.99c-43.33-8.54-81.86-42.75-123.48-60.21c-40.96-25.05-83.58-47.28-124.06-73.13
		C231.97,185.44,224.42,183.89,225.61,175.17z"/>
	<path class="st17" d="M498.39,226.96C482.69,209.81,285.47,76.89,327.56,68.65c20.37-13.01,26.19-20,43.07,0.66
		c9.97,10.38,21.85,18.96,29.76,31.3c-21.33,5.17-31.03-38.6-56-30.29c-48.91,11.07,164.72,133.45,160.4,157.24
		C502.49,229.11,500.37,228.79,498.39,226.96z"/>
	<path class="st18" d="M494.78,528.55c39.06-8.51,78.11-17.03,117.17-25.54c10.48,6.74,22.88-5.54,32.58,2.97
		c-17.36,25.6-72.62,16.25-100.4,27.7c-22.65,3.66-47.05,21.84-68.76,17.78c2.29-9.12,16.23-8.69,16.16-19.74
		C492.62,530.65,493.7,529.6,494.78,528.55z"/>
	<path class="st19" d="M128.36,664.93c-6.53,18.05,5.64,50.13,26.99,33.42c65.05-28.66,126.09-70.68,193.61-91.76
		c-66.36,36.02-135.47,66.46-201.55,102.7c-20.08,12.16-22.08-11.87-28.74-24.59C112.87,673.46,116.89,667.48,128.36,664.93z"/>
	<path class="st20" d="M647.15,19.48c13.94,19.45,27.88,38.91,41.81,58.36c-25.59,0.79-35.23-41.99-56.63-55.39
		c5.21,39.97,54.46,64.09,56.81,101.11C669.28,111.07,561.99-34.88,647.15,19.48z"/>
	<path class="st21" d="M559.67,90.88c45.17,56.15,100.15,113.31,152.01,156.61C691.3,260.69,536.73,97.72,559.67,90.88z"/>
	<path class="st22" d="M688.64,266.29c-52.07-39.77-96.32-89.06-137.37-139.78c14.16-7.65,23.73,16.24,32.33,23.92
		c31.47,34.66,64.35,67.81,99.26,99c4.88,4.36,11.75,8.4,10.05,17.03C691.44,267.34,690.02,267.32,688.64,266.29z"/>
	<path class="st23" d="M614.76,266.02c1.62,29.03-64.76-19.99-66.15-35.07c6.2-2.64,19.98,8.21,17.52-9.84
		c18.59,0.71,29.47,27.51,46.18,36.46C614.75,259.44,616.57,262.44,614.76,266.02z"/>
	<path class="st24" d="M548.61,230.94c27.05,27.51,58.29,50.41,86.29,76.96c-3.78,16.3-165.81-124.54-149.45-130.64
		c14.32,5.47,20.4,21.09,33.91,27.54C535.14,207.05,534.33,227.22,548.61,230.94z"/>
	<path class="st25" d="M614.76,266.02c-17.55-19.96-41.09-35.32-57.64-55.24c12.32-7.95,24.89,10.89,33.88,17.77
		c32.81,35.93,72.81,63.48,109.94,94.4c1.68,2.71,3.5,5.41,1.03,8.61C669.35,314.52,642.86,289.22,614.76,266.02z"/>
	<path class="st26" d="M549.83,395.17c8.85,8.79,37.89,8.27,35,21.81c-3.35,12.72-15.84-1.58-24.44,0.34
		c-17.07-4.42-36.9-6.04-52.58-15.15c1.33-6.05-5.07-10.03-3.34-16.14C520.22,386.37,533.63,398.24,549.83,395.17z"/>
	<path class="st27" d="M633.83,377.27c-21.45-12.31-42.91-24.61-64.36-36.92c-26.22-14.11-53.85-32.32-78.7-51.3
		c35.26,0.11,63.03,32.71,93.29,48.71C596.33,351.5,635,357.96,633.83,377.27z"/>
	<path class="st28" d="M586.62,31.97c31.81,46.11,67.96,89.75,105.8,130.18C673.99,167.51,575.5,48.77,582.27,31.6
		C583.8,30.86,585.25,30.99,586.62,31.97z"/>
	<path class="st29" d="M586.62,31.97c-8.17,2.83-12.82-2.18-17-7.71c-39.23-20.43,48.16,65.48,28.53,73.89
		c-10.4-17.53-69.85-76.51-48.39-91.76C567.78-2.97,578.54,19.26,586.62,31.97z"/>
	<path class="st30" d="M576.21,190.72c43.71,42.59,87.19,85.86,139.44,117.22C699.84,325.85,567.13,207.91,576.21,190.72z"/>
	<path class="st31" d="M689.15,123.56c0.13-1.29,0.25-2.59,0.38-3.88c11.42-2.95,22.54,21.61,31.47,13.45
		c11.35-21.77-39.31-32.92-38-55.3c1.99,0.01,3.98,0.01,5.97,0.02c14.31,12.89,28.61,25.79,42.92,38.68
		C742.09,172.11,712.41,153.17,689.15,123.56z"/>
	<path class="st32" d="M485.45,177.27c1.97,3.71,3.94,7.43,5.91,11.14c-26.65-2.78-64.28-55.53-90.38-72.41
		c-4.24-3.55-11.67-9.69-6.61-15.53c2.01,0.04,4.02,0.09,6.03,0.13C428.06,126.97,458.96,149.6,485.45,177.27z"/>
	<path class="st33" d="M498.39,226.96c20.76-3.36,31.98,16.56,46.97,27.23c11.83,13.96,34.97,19.55,40.96,37.4
		C571.54,300.81,512.53,240.51,498.39,226.96z"/>
	<path class="st34" d="M513.84,82.08c-8.71-12.68-68.37-65.42-35.34-70.29c18.91-5.54,23.51-3.64,33.47,13.88
		c-5.06,3.31-8.52-1.17-12.63-2.54c-40.68-12.53,15.88,41.74,16.78,55.14C515.83,79.82,515.09,81.1,513.84,82.08z"/>
	<path class="st35" d="M566.02,210.88c-2.97-0.03-5.93-0.07-8.9-0.1c-16.78-13.68-31.89-29.05-46.11-45.33
		c0.48-7.65-7.74-10.24-9.6-16.53c8.03-4.23,11.94,2.54,16.27,6.67C532.34,174.18,560.37,188.1,566.02,210.88z"/>
	<path class="st36" d="M501.26,269.27c0.04-2.28,0.09-4.56,0.13-6.84c24.65,16.72,48.47,34.74,73.9,50.27
		c6.77-1.01,12.1,7.96,6.78,12.69C576.88,330.66,500.28,275.65,501.26,269.27z"/>
	<path class="st37" d="M682.93,158.81c12.88,6.31,29.23,12.43,36.18,26.17c-9.56,5.73-15.2-5.07-23.97-5.74
		c-1.28,8.89,10.77,13.42,7.28,22.55c-7.89,3.16-21.77-10.6-25.99-17.65C672.94,175.71,664.73,153.3,682.93,158.81z"/>
	<path class="st38" d="M501.05,19.61c26.1,15.86,38.49,48.47,58.62,71.28c-1.07,1.05-2.14,2.09-3.21,3.14
		c-26.54-11.22-36.44-47.54-57.33-67.86C498.78,23.69,499.28,21.46,501.05,19.61z"/>
	<path class="st39" d="M696.05,200.92c10.19-3.27,18.46,14,26.39,5.67c6.64-8.29-4.75-13.84-4.16-21.6
		c-4.54-9.87-17.87-9.85-22.29-19.85c13.15,5.73,26.26,11.51,35.88,22.79c5.15,16.41-0.26,50.27-21.81,29.12
		C706.17,212.86,691.72,207.68,696.05,200.92z"/>
	<path class="st40" d="M598.15,98.15c0.15-2.46,0.31-4.92,0.46-7.38c18.21,5.05,23.79,26.03,37.77,37.22
		c5.48,10.56,19.55,16.09,18.09,30.74C631.69,150.07,614.74,117.56,598.15,98.15z"/>
	<path class="st41" d="M576.21,190.72c-0.16,1.37-0.32,2.74-0.48,4.11c-25.3-4.13-39.38-39.32-60.65-54.25
		c-3.62-3.6-8.11-7.59-4.5-13.85C536.93,140.52,553.72,170.7,576.21,190.72z"/>
	<path class="st42" d="M688.64,266.29c13.48-6.64,24,13.52,33.26,4.53c7.61-11.47-13.73-15.49-9.98-27.25
		c21.19,9.07,22.71,12.01,19.62,34.69C727.39,302.37,697.8,274.56,688.64,266.29z"/>
	<path class="st43" d="M709.13,25.27c39.52,12.79,26.67,88.17-7.64,27.06c7.29-6.91,13.14,11.14,20.26,4.34
		C730.95,44.43,702.55,36.95,709.13,25.27z"/>
	<path class="st44" d="M125.95,346.61c-10.35,1.62-24.04-3.42-26.76,13.42c5.22,12.35-3.11,25.08,2.77,36.85
		c-23.68,0.32-12.05-18.64-9.23-33.5C98.41,341.95,102.86,339.73,125.95,346.61z"/>
	<path class="st45" d="M484.9,321.52c-0.97-2.49-1.93-4.98-2.9-7.47c23.63,10.3,45.82,23.3,68.06,36.21
		c-2.23,0.03-4.46,0.06-6.69,0.08c-5.46,4.26-10.12,0.67-14.42-1.96C516.34,337.52,492.42,335.67,484.9,321.52z"/>
	<path class="st46" d="M513.84,82.08c0.18-1.54,0.36-3.07,0.55-4.61c9.53-1.92,46.01,40.04,42.16,49.01
		c-1.76,0.01-3.52,0.01-5.28,0.02C538.03,112.34,524.59,98.34,513.84,82.08z"/>
	<path class="st47" d="M705.42,52.05c-1.31,0.09-2.62,0.19-3.93,0.28c-9.8-9.33-29.83-37.98-2.02-33.17
		c3.22,2.04,6.44,4.08,9.66,6.12c-0.07,1.25-0.13,2.51-0.2,3.77C697.08,35.08,707.43,44.5,705.42,52.05z"/>
	<path class="st23" d="M582.53,317.79c-2.41-1.7-4.82-3.4-7.23-5.09c5.01-6.58,2.81-13.37,0.58-20.16
		c9.29,0.69,21.14,6.91,22.4,18.42C596.42,321.06,591.02,323,582.53,317.79z"/>
	<path class="st48" d="M646.61,155.96c14.96,4.78,25.25,15.97,33.11,28.89c3.35,8.17,18.22,9.38,15.92,19.86
		C676.91,190.86,660.03,175.15,646.61,155.96z"/>
	<path class="st49" d="M708.7,308.26c17.59-3.59,27.53,12.34,19.74,25.19c-5.93,13.61-18.31,1.17-26.45-1.89
		c-1.01-2.38-2.01-4.76-3.01-7.14c5.35-5.29,11.43,3.11,17.54,0.36C718.28,316.75,707.03,315.68,708.7,308.26z"/>
	<path class="st50" d="M715.19,360.53c1.15-0.39,2.31-0.78,3.46-1.17c16.03,1.26,13.56,17.34,12.72,29.4
		c-6.83,5.69-26.45,4.07-21.69-7.5C724.13,377.73,717.72,368.61,715.19,360.53z"/>
	<path class="st51" d="M578.61,19.53C565.47,4,543.18-1.58,546.71,25.91C516.93-2.04,577.05-6.88,578.61,19.53z"/>
	<path class="st52" d="M705.74,333.97c7.13-1.69,16.27,9.19,21.45-2.31c4.32-9.59,0.45-17.77-8.69-23.15
		c19.39-0.18,11.64,14.57,13.05,24.06C733.59,351.91,713.51,340.96,705.74,333.97z"/>
	<path class="st53" d="M647.15,19.48c-8.33-6.4-16.07-13.9-26.81-8.52c-9.83,4.13-0.2,12.21-2.29,18.19
		C586.33-3.02,647.06,0.89,647.15,19.48z"/>
	<path class="st54" d="M167.24,249.76c-12.27-1.44-23.6,0.35-32.75,9.59C145.31,237.26,145.99,237.06,167.24,249.76z"/>
	<path class="st55" d="M507.81,402.17c8.91,2.47,19.56,0.25,25.9,9.63c-12.2,0.46-25.83-1.76-35.97-9.49
		C501.1,402.27,504.45,402.22,507.81,402.17z"/>
	<path class="st23" d="M556.39,331.69c4.36,2.89,8.72,5.77,13.08,8.66c1,10.34-5.88,10.35-13.06,9.95
		C561.59,344.09,555.6,337.89,556.39,331.69z"/>
	<path class="st56" d="M559.54,379.96c-0.47,4.99,2.42,11.71-6.39,12.4c0.43-9.58-8.87-12.59-12.92-19.15
		C547.78,372.29,553.29,377.2,559.54,379.96z"/>
	<path class="st54" d="M127.91,271.58c-1.26,9.72,4.23,16.45,10.15,22.99C118.24,289.39,116.97,286.5,127.91,271.58z"/>
	<path class="st57" d="M699.47,19.16c-13.31-0.48-13.44,7.11-10.26,16.74C672.48,26.03,683.21,7.03,699.47,19.16z"/>
	<path class="st58" d="M721.83,152.4c16.16-2.61,7.59-24.43,10.06-35.87c0.98,1.16,1.96,2.32,2.94,3.49
		C733.12,129.5,741.45,164.63,721.83,152.4z"/>
	<path class="st59" d="M432.45,129.95c-11.28-4.48-17.93-14.05-25.2-22.94C418.4,111.62,425.88,120.28,432.45,129.95z"/>
	<path class="st23" d="M536.77,221.04c-5.8-5.41-11.6-10.82-17.4-16.22C531.36,203.57,537.23,208.91,536.77,221.04z"/>
	<path class="st60" d="M254.98,120.2c-0.13,5.44-0.27,10.88-0.4,16.32C239.34,130.7,247.03,125.45,254.98,120.2z"/>
	<path class="st61" d="M730.87,219.92c0.33-10.67,0.67-21.33,1-32C735.58,196.25,738.92,214.05,730.87,219.92z"/>
	<path class="st23" d="M556.41,276.27c6.03,2.94,11.07,7.07,15.1,12.44C562.6,289.27,555.65,287.44,556.41,276.27z"/>
	<path class="st62" d="M423.49,502.77c-4.61,5.22-10.75,2.54-16.25,3.14C410.46,493.44,417.12,498.83,423.49,502.77z"/>
	<path class="st63" d="M291.21,106.45c-6.68,0.23-13.37,0.45-20.05,0.68C277.61,99.81,284.16,95.7,291.21,106.45z"/>
	<path class="st64" d="M400.82,697.43c-47.47,53.11-103.36,97.49-153.11,148.27c-14.04,20.6-45.54-12.3-25.28-26.92
		c53.38-45.41,112.2-85.66,162.1-134.41c6.9-4.54,9.92-15.25,20.97-13.21C416.1,682.08,405.22,689.17,400.82,697.43z"/>
	<path class="st65" d="M196.46,732.82c63.18-36.44,124.17-76.55,190.31-106.84c6.07-3.64,14.12-11.33,19.62-2.74
		c1.41,18.6-51.82,42.24-66.26,56.63c-30.93,11.96-154.86,134.99-169.54,93.35C160.84,753.81,184.4,742.62,196.46,732.82z"/>
	<path class="st66" d="M458.8,740.03c-25.43,68.92-64.21,127.89-100.2,190.78c-8.03,15.81-36.48-1.13-25.04-14.8
		C376.35,858.98,407.05,787.56,458.8,740.03z"/>
	<path class="st67" d="M384.6,785.01c-23.62,39.25-55.78,72.75-82.86,109.78c-4.98,6.39-11.06,10.03-17.1,2.18
		c-5.1-6.63-20.37-11.05-9.79-22.83C284.55,862.01,423.6,702.09,384.6,785.01z"/>
	<path class="st68" d="M180.16,745.83c-4.9,10.37-15.26,20.8-3.45,29.78c21.74,16.91,50.49-27.9,71.88-36.18
		c51-40.87,112.28-71,157.39-117.39c-19.02,4.81-33.23,17.22-50.81,20.03c9.24-7.44,150.1-99,135.69-59.98
		c-98.5,71.83-204.55,139.91-304.26,212.51c-15.44-4.28-19.2-18.68-26.21-30.26C156.09,755.33,173.13,747.88,180.16,745.83z"/>
	<path class="st69" d="M384.6,785.01c2.02-8.89,13.23-24.2-3.45-22.9c19.27-27.01,47.07-46.73,64.99-74.55
		c15.78-16.16,38.37-51.76,58.72-55.99c8.12,6.54,7.25,20.61-3.6,23.53C451.65,686.18,427.83,746.63,384.6,785.01z"/>
	<path class="st70" d="M403.99,671.46c40.04-31.68,80.22-63.15,123.15-90.92c6.63-0.13,13.26,1.23,19.67-2.54
		c17.18-4.88,1.62,16.88-4.84,20.71c-10.72,12.78-17.8-5.42-28.8,7.84c-40.61,27.21-74.98,60.12-112.34,90.87
		C400.91,688.65,411.67,681.18,403.99,671.46z"/>
	<path class="st71" d="M439.7,917.92c19.83,21.66,42.19,41.04,60.09,64.31c-11.68,40.4-62.98-43.17-79.63-53.05
		C400.64,909.18,428.29,894.18,439.7,917.92z"/>
	<path class="st72" d="M537.19,862.72C578.61,906.47,632,938,672.36,981.61c-11.78,9.41-25.48,12.64-36.01,3.91
		c-38.09-35.75-94.79-65.81-119.34-110.06c11.94-4.7,127.78,121.62,135.27,102.87c3.96-5.43-3.71-8.97-7.68-12.03
		c-36.45-33.16-89.03-60.16-111.33-103.81C534.65,861.33,535.95,861.41,537.19,862.72z"/>
	<path class="st73" d="M712.46,690.65c8.25,9.37,33.64,14.7,25.35,30.28c-4.93,8.27-12.35,6.15-19.45,2.62l0.05-0.03
		c-14.84-12.04-98.42-76.78-45.84-81.23C683.53,660.44,698.09,675.34,712.46,690.65z"/>
	<path class="st74" d="M880,869.71c-84.39-37.64-246.13-104.43-266.17-201.14c12.63-0.46,10.77,12.19,16.39,18.08
		c19.66,42.88,56.87,68.55,94.22,93.03c41.04,26.89,85.75,47.39,130.23,68.14c11.65,5.43,27.54,6.28,32.34,22.26
		C884.62,871,882.28,870.83,880,869.71z"/>
	<path class="st75" d="M605.24,519.18c12.6-5.31,27.59-3.61,38.73-13.21c-2.77-8.51,18.33-3.83,23.88-6.81
		c11.48-2.21,17.55,8.92,7.98,16.1c-14.12,12.72-29.53,23.6-42.72,37.71c-9.29,5.84-16.77,24.3-28.88,20.85
		c0.87-24.76,28.73-34.51,44-51.9c-9.42,7.29-85.09,61.09-76.96,28.86c9.88-9.63,22.1-15.52,34.17-21.44
		C613.85,528.19,598.42,525.22,605.24,519.18z"/>
	<path class="st76" d="M650.94,687.2c58.36,89.21,177.08,113.05,253.01,166.07C847.24,843.55,650.02,746.87,650.94,687.2z"/>
	<path class="st77" d="M627.64,687.69c-6.56-4.92-5.95-14.77-13.22-19.2c-14.66-15.28-13.86-39.76-6.04-56.18
		c16.52,7.24,10.02-21.89,21.91-9.74c2.81,29,2.7,56.79,16.69,83.27C648.11,705.34,633.65,701.52,627.64,687.69z"/>
	<path class="st78" d="M672.57,642.29c-8.56,0.52-11.38,9.13-17.8,12.66c-20.83-19.36-25.95-100.36,4.49-109.9
		c4.05,2.1,2.72,6.07,1.18,9.51C655.21,584.39,657.96,615.91,672.57,642.29z"/>
	<path class="st79" d="M653.64,927.65c-58-46.76-179.32-119.58-143.56-205.05c7.71,6.08,4.87,14.98,5.4,22.62
		c2.55,36.3,17.2,66.43,44.22,90.71c29.28,30.61,61.77,57.5,95.67,82.76c2.49,2.76,6.8,4.66,4.74,9.65
		C657.79,929.68,655.63,929.45,653.64,927.65z"/>
	<path class="st80" d="M481.77,726.54c14.78-56.56,49.48-119.25,101.11-146.18c4.17,9.09-5.48,13.42-7.05,20.54
		c-10.03,22.22-34.01,32.34-43.49,54.75c-11,21-30.42,35.57-38.59,58.1C490.73,718.85,490.33,726.58,481.77,726.54z"/>
	<path class="st81" d="M659.9,927.72c-10.57-7.65-8.36-19.84,4.87-19.74c16.82,6.59,30.55,18.03,43.97,29.64
		c21.6,7.99,25.47,36.68-2.4,26.21C691.51,950.95,671.58,943.83,659.9,927.72z"/>
	<path class="st82" d="M767.12,843.88c15.65,14.59,119.15,38.89,81.2,64.39l0.04,0.01c-39.98,4.99-81.92-36.83-117.35-54.91
		c21.3-8.17,76.69,41.67,107.26,47.13C844.51,877.77,760.81,865.32,767.12,843.88z"/>
	<path class="st83" d="M654.24,829.3c17.25,21.61,160.65,88.98,137.88,107.29c-7.98,8.21-16.93,10.39-25.58,0.36
		c0.01-8.81,10.67-3.09,12.98-10.12C762.11,904.85,646.8,855.17,654.24,829.3z"/>
	<path class="st84" d="M517.52,875.63c0.04,2.03,0.09,4.06,0.13,6.08c-93.78-72.36-21.32-203.83-18.66-74.19
		c-12.49,0.64-6.84-14.55-17.48-18.27C475.64,826.58,507.6,846.48,517.52,875.63z"/>
	<path class="st85" d="M491.21,765.69c-22.09-34.86-19.51,35.72-19.08,48.29c-12.49-46.41,8.62-105.71,42.01-136.07
		c-1.27,22.08-13.3,41.44-16.61,63.32C494.06,749.03,498.7,758.94,491.21,765.69z"/>
	<path class="st86" d="M618.27,499.52c-7.33-6.7-35.58,2.31-25.37-14.52c36.16-8.72,71.53,10.34,106.08-6.34
		c7.66-2.53,18.24-6.22,25.55-2.13c-16.21,26.6-51.55,19.05-77.88,23.25C637.17,501.68,627.66,507.06,618.27,499.52z"/>
	<path class="st87" d="M753.69,931.17c-52.15-32.31-103.62-65.58-149.23-107.03c11.32-9.3,22.12,9.87,31.68,14.13
		c32.9,28.99,71.27,50.14,107.1,74.92c6.91,4.78,17.48,6.82,17.16,18.55C758.05,932.92,755.83,932.55,753.69,931.17z"/>
	<path class="st88" d="M501.04,937.92c-21.24-26.7-80.09-59.91-61.97-98.16c9.14-12.64,14.59-4.73,19.96,3.58
		c6.51,14.02,20.85,28.14,23.29,42.4c-18.34-2.92-16.53-26-33.59-30.55C450.05,890.24,503.34,910.66,501.04,937.92z"/>
	<path class="st89" d="M708.67,937.45c-33.01-25.4-138.27-74.71-139.41-116.04C609.72,866.7,667.89,896.07,708.67,937.45z"/>
	<path class="st90" d="M654.24,829.3c-0.24,1.54-0.47,3.07-0.71,4.61c-1.33,0.99-2.82,1.46-4.48,1.41
		c-28.33-13.5-112.33-102.19-83.22-128.08C573.24,759.97,616.15,796.59,654.24,829.3z"/>
	<path class="st91" d="M611.48,823.84c-2.34,0.1-4.68,0.2-7.02,0.3c-39.84-31.26-68.97-77.46-60.46-129.93
		c14.37,8.16,2.97,31.72,11.47,45.4c7.98,25.4,23.29,45.8,42.5,63.85C603.84,808.96,612.66,813.33,611.48,823.84z"/>
	<path class="st92" d="M767.12,843.88c0.02,1.02,0.04,2.04,0.03,3.07c-23.54,3-99.15-52.35-112.06-75.27
		c0.26-1.65,1.1-2.94,2.42-3.93C692.07,795.98,729.27,820.4,767.12,843.88z"/>
	<path class="st93" d="M602.68,752.04c-21.56-29.92-30.42-63.24-26.67-99.92c11.28-1.42,6.08,20.03,7.93,27.19
		c3.98,33.04,20.62,59.3,43,82.65c2.93,9.79,18.26,10.9,16.74,23.82C626.08,785.67,616.02,761.92,602.68,752.04z"/>
	<path class="st94" d="M657.52,767.75c-0.26,1.47-0.52,2.95-0.78,4.42c-36.61-7.89-88.69-107.17-58.43-136.46
		C593.99,687.78,620.02,733.61,657.52,767.75z"/>
	<path class="st95" d="M636.79,785.4c2.29-0.1,4.59-0.2,6.88-0.3c28.25,16.04,52.52,38,81.01,53.65
		c5.43,3.45,13.15,5.47,13.28,14.17c-2.32,0.15-4.64,0.3-6.96,0.45C696.96,834.37,664.71,812.9,636.79,785.4z"/>
	<path class="st96" d="M569.26,821.41c0.03,1.91,0.07,3.81,0.1,5.72c-34.14-6.03-65.38-108.94-36.09-129.67
		C523.51,742.91,538.99,787.36,569.26,821.41z"/>
	<path class="st97" d="M439.7,917.92c-13.29-14.87-31.79-11.23-18.49,9.17c6.21,7.69,16.42,12.21,18.51,23.18
		c-9.76-13.2-34.44-22.47-32.05-40.85c2.3-13.68,13.61-21.34,21.3-6.73C433.38,907.02,439.49,910.51,439.7,917.92z"/>
	<path class="st98" d="M682.52,947.33c13.73-2.26,18.25,15.33,31.57,15.74c21.04-0.38,1.24-18.53-5.34-25.46
		c9.96-2.06,35.71,20.75,19.61,29.13C710.66,980.63,694.9,959.12,682.52,947.33z"/>
	<path class="st99" d="M653.4,428.34c8.28-5.28,16.32-7.11,24.56-1.93c15.4,9.97,48.25,9.64,50.76,30.46
		C720.47,460.18,652.52,437.18,653.4,428.34z"/>
	<path class="st100" d="M679.31,415.38c10.22-15.05,23.3-1.22,35.68,3.51c9.86,2.57,15.4,7.97,13.53,18.65
		C719.71,441.56,683.01,426.25,679.31,415.38z"/>
	<path class="st101" d="M903.47,852.87c-0.03-2.09-0.05-4.18-0.08-6.27c34.38,3.14,9.96,27.82-7.88,31.15
		c-5.47-1.71-10.36-5.28-15.51-8.04c2.4-0.17,4.81-0.34,7.22-0.51C892.79,863.91,905.56,865.78,903.47,852.87z"/>
	<path class="st102" d="M501.04,937.92c0.12-1.3,0.23-2.6,0.35-3.9C577.93,985.43,582.78,1030.74,501.04,937.92z"/>
	<path class="st103" d="M498.29,803.76c11.35,20.95,23.14,40.97,38.9,58.96c-15.51,5.74-48.23-43-39.36-54.92
		C497.98,806.45,498.13,805.1,498.29,803.76z"/>
	<path class="st104" d="M647.29,561.47c-1.26-1.25-2.52-2.5-3.79-3.75c-1.95-16.1,11.24-28.07,23.16-35.67
		c0.63,11.36-1.73,22.15-6.24,32.52c-0.57-2.56-1.13-5.11-1.7-7.67C653.05,550.08,650.71,556.22,647.29,561.47z"/>
	<path class="st105" d="M753.69,931.17c4.67,0.09,10.8-1.93,13.5,3.17c5.67,8.52,13.11,8.08,20.49,3.17
		c10.21-6.8,1.99-13.64-0.69-20.38C821.48,931.19,778.99,962.28,753.69,931.17z"/>
	<path class="st106" d="M675.83,515.26c7.04-25.2-19.05-3.32-28.41-12.31c12.82-8.45,27.13-8.06,41.56-7.01
		C693.2,506.48,687.07,514.48,675.83,515.26z"/>
	<path class="st107" d="M524.08,639.07c-6.86,8.44-10.62,19.15-19.25,26.29c-0.53-3.65,0.36-7.8-3.58-10.27
		c6.78-7.03,5.98-18.65,14.85-24.06C522.08,625.12,529.46,632.79,524.08,639.07z"/>
	<path class="st108" d="M666.35,674.82c17.35,16.23,34.71,32.47,52.06,48.7C696.86,711.78,679.66,695.38,666.35,674.82z"/>
	<path class="st109" d="M718.36,723.55c14.97,1.48,26.67-4.96,12.99-19.09C753.79,719.9,739.21,752.47,718.36,723.55z"/>
	<path class="st0" d="M442.91,622.75c9.95-12.93,26.26-15.96,40.51-22.84c-11.34,8.69-22.69,17.39-34.03,26.08
		C447.24,624.92,445.08,623.83,442.91,622.75z"/>
	<path class="st110" d="M559.84,992.27c-1.12-2.12-2.24-4.25-3.35-6.37c4.8-4.67,9.66,2.08,14.72-0.12
		c1.21-6.44-8.41-9.57-5.25-16.56c7.26-2.29,37.33,24.91,17.59,27.23C575.94,997.84,566.25,1001.55,559.84,992.27z"/>
	<path class="st111" d="M481.85,885.42c0.08-1.26,0.17-2.53,0.25-3.79c15.01,15.34,30.02,30.68,45.03,46.02
		C517.9,934.93,482.89,896.17,481.85,885.42z"/>
	<path class="st112" d="M559.84,992.27c8.42,6.39,35.56,6.38,25.73-9.57c7.16,0.59,11.6,5.67,10.71,11.59
		c-1.03,6.83-8.68,4.9-13.57,4.81c-9.07-0.16-19.77,4.72-26-6.73C557.76,992.39,558.8,992.35,559.84,992.27z"/>
	<path class="st113" d="M497.87,979.7c-11.55-11.22-25.32-20.4-32.53-35.59c13.44,10.24,25.38,21.98,35.42,35.61
		C499.79,981.25,498.82,981.17,497.87,979.7z"/>
	<path class="st114" d="M497.87,979.7c0.97-0.06,1.93-0.05,2.89,0.03c16.4,16.33-12.9,23.65-22.58,9.84
		C486.8,990.38,498.7,997.74,497.87,979.7z"/>
	<path class="st115" d="M724.54,476.53c-11.69,2.02-9.5-2.63-13.36-11.51c2.5-7.24,13.14-3.06,17.55-8.14
		C733.7,464.78,731.18,471.09,724.54,476.53z"/>
	<path class="st116" d="M459.02,843.33c-6.12-4.12-11.55-12.1-19.95-3.58C445.46,817.22,455.31,825.05,459.02,843.33z"/>
	<path class="st117" d="M712.46,690.65c-10.6-8-21.74-15.5-26.37-28.93C695.71,670.6,706.78,678.17,712.46,690.65z"/>
	<path class="st118" d="M718.52,434.67c3.33,0.96,6.66,1.92,9.99,2.87c3.75,4.5,4.43,8.96-0.21,13.33
		c-4.47-1.88-8.94-3.77-13.41-5.65C715.6,441.53,716.92,438.05,718.52,434.67z"/>
	<path class="st112" d="M523.62,927.79c1.17-0.05,2.35-0.09,3.52-0.14c8.66,7.6,18.83,13.79,23.48,25.13
		C546.17,962.9,522.37,934.58,523.62,927.79z"/>
	<path class="st119" d="M848.32,908.27c5.51-6.97,9.24-14.18,3.18-22.76C870.53,886.48,862.94,906.95,848.32,908.27z"/>
	<path class="st120" d="M728.36,966.75c6.43-7.82,0.23-13.9-2.83-20.41C739.06,948.68,746.98,966.91,728.36,966.75z"/>
	<path class="st121" d="M659.9,927.72c6.47,5.51,12.94,11.02,19.4,16.53c-11.36-1.19-18.12-9.5-25.67-16.6
		C655.73,927.67,657.81,927.7,659.9,927.72z"/>
	<path class="st122" d="M659.64,600.35c-4.6-14.24-4.69-28.47,0.09-42.69C659.7,571.89,659.67,586.12,659.64,600.35z"/>
	<path class="st112" d="M571.96,970.16c-9.57-1.01-20.64-4.82-22.41-16.1c0.36-0.42,0.72-0.85,1.08-1.28
		C561.29,954.2,567.08,961.63,571.96,970.16z"/>
	<path class="st123" d="M728.29,428.16c-1.17-0.99-2.35-1.97-3.52-2.96c0.82-6.87-4.79-12.77-3-19.79c1.13-0.19,2.27-0.39,3.4-0.58
		C735.89,411.31,732.63,419.66,728.29,428.16z"/>
	<path class="st76" d="M644.04,684.38c-0.56-7.83-7.44-13.68-6.88-21.87c6.93,6.92,9.79,16.12,13.78,24.68
		C648.02,690.15,645.53,686.45,644.04,684.38z"/>
	<path class="st0" d="M422.99,870.49c-0.14,4.37-3.13,5.07-6.6,5.07C405.37,873.72,422.31,856.22,422.99,870.49z"/>
	<path class="st124" d="M828.32,908.65c6.68-0.12,13.35-0.25,20.03-0.37C841.85,917.5,835.15,916.45,828.32,908.65z"/>
	<path class="st18" d="M485.11,567.7c32.01-8.97,61.56-23.67,90.91-38.88c10.73,11.95,27.59-11.53,32.02,2.95
		c-14.33,6.39-28.35,18.85-42.12,22.75c-20.61-7.16-57.49,19.42-77.62,29.23c-0.42-4.48,1.51-9.55-3.27-12.93
		C485.07,569.78,485.09,568.74,485.11,567.7z"/>
	<path class="st125" d="M507.73,496.24c15.59-6.88,32.98-0.32,48.66-6.53c4.82-3.38,12.19,3.97,9.74,9.7
		c-29.17,5.39-58.35,10.79-87.52,16.18c2.16-2.12,4.32-4.24,6.47-6.36C490.32,500.88,503.76,506.83,507.73,496.24z"/>
	<path class="st126" d="M507.73,496.24c18.85,9.62-16.24,11.68-22.65,12.99c-0.28-6.28-3.64-9.45-9.83-9.78
		C485.53,492.97,496.93,497.66,507.73,496.24z"/>
	<path class="st2" d="M362.92,585.14c-64.59,43.2-144.96,70.98-213.76,111.23c-7.33,2.57-13.06-0.45-16.07-6.95
		c-9-23.28,28.65-27.7,43.21-35.01C238.23,631.76,299.1,599.22,362.92,585.14z"/>
	<path class="st127" d="M637.63,483.41c14.3-3.32,30.4,6.45,42.14-6.56c3.3-8.91,14.99-0.67,19.61,3.41
		C706.22,488.69,633.73,496.07,637.63,483.41z"/>
	<path class="st128" d="M685.74,473.82c-5.77,3.7-50.03,7.74-44.95-3.81c12.89-0.74,26.02,2.62,38.65-2.39
		c6.22-4.2,10.47-3.92,10.98,4.84C689.27,474.36,687.72,474.81,685.74,473.82z"/>
	<path class="st129" d="M501.26,269.27c4.29,7.02,21.57,10.9,14.74,20.8c-5.46,6.74-12.22-1.42-17.95-4.65
		c-54.71-36.46-123.45-67.8-168.89-110.89c8.12-3.53,13.27,2.61,18.78,6.31c26.4,17.72,52.98,35.13,81.15,50.16
		c-37.15-29.41-76.72-55.62-114.11-84.75c-4.45-3.41-10.59-6.33-8.3-13.97C372.59,170.46,435.47,226.47,501.26,269.27z"/>
	<path class="st130" d="M498.05,285.42c6.11-1.04,10.53,7.19,17.56,3.24c-0.46-7.78-9.08-9.76-11.1-16.15
		c29.26,13.57,51.16,42.14,81.01,52.26c36.55,50.43-76.15-31.44-87.64-36.04C497.94,287.63,497.99,286.53,498.05,285.42z"/>
	<path class="st131" d="M329.43,175.15c-0.07,1.17-0.15,2.34-0.22,3.51c-12.92-8.9-77.73-39.43-65.16-55.92
		c14.05-24.3,35.35-3.66,48.98,10.35c-14.74,5.12-25.22-20.38-37.31-8.1C272.64,145.92,322.87,155.51,329.43,175.15z"/>
	<path class="st132" d="M326.18,398.95c21.25,7.95,98.88,9.41,104.65,26.27c-23.75,14.52-93.76-11.03-126.74-9.44
		c0.16-6.65,1.25-13.05,5.25-18.66C314.91,398.23,320.85,395.79,326.18,398.95z"/>
	<path class="st133" d="M303.46,411.94c15.27,7.51,34.37,1.37,48.65,9.76c-84.74-5.69-168.92-19.43-252.84-32.6
		c-6.39-9.67-2.38-19.37-0.08-29.07c17.32-17.95,34.69-5.33,52.05-0.08c-11.16,12.68-37.35-10.07-42.07,11.19
		C102.19,395.4,280.24,397,303.46,411.94z"/>
	<path class="st134" d="M371.58,424.89c17.63-4.54,42.95,10.75,56.53-0.26c0.6-7.79-10.43-4.58-14.38-9.45
		c33.45,2.72,65.58,10.63,98.27,17.19c2.85,0.62,7.28,1.64,6.87,5.53c-0.46,4.33-4.94,2.7-7.85,3.22
		C465.13,434.19,415.78,435.03,371.58,424.89z"/>
	<path class="st126" d="M559.7,489.89c10.93,0.2,21.27-5.34,32.39-3.31c1.07,3.18,2.14,6.36,3.21,9.54
		c-9.21,5.72-19.41,2.64-29.18,3.29C563.98,496.23,561.84,493.06,559.7,489.89z"/>
	<path class="st135" d="M618.27,499.52c9.86,0.92,19.49-0.36,28.97-3.03c1.71,3.54-1.49,4.5-3.26,6.22
		c-0.01,1.09-0.01,2.17-0.02,3.26c-10.52,0.22-25.39,9.37-32.01-2.96C614.63,502.87,617.08,502.33,618.27,499.52z"/>
	<path class="st136" d="M394.18,366.58c-25.58-5.84-52.99-11.79-75.28-25.38c5.13-6.45,11.66-2.7,18.11-2.34
		c-11.33-8.17-47.52-10.15-45.91-25.31c44.11,11.17,88.94,31.22,132.36,46.52c4.42,2.91,13.4,3.16,10.25,11.09
		C427,381.48,404.99,367.12,394.18,366.58z"/>
	<path class="st137" d="M394.18,366.58c12.02-3.21,27.18,10.93,36.84,4c3.33-6.04-5.87-6.25-7.57-10.52
		c28,5.56,53.91,17.62,81.01,25.97c2.39,3.97,10.89,6.35,3.32,12.89C469.7,388.91,431.01,381.01,394.18,366.58z"/>
	<path class="st138" d="M183.36,301.7c-18.17-5.37-38.52-5.74-51.65-22.62c7.37-17.29,16.2-33.6,36.99-22.21
		c31.89,14,63.9,27.73,95.86,41.57c-4.27,19.64-73.56-27-90.55-29.6c-8.89-4.58-23.8-8.73-27.43,4.08
		c-2.65,19.2,43.34,12.07,43.61,29.41C187.79,303.32,185.49,303.46,183.36,301.7z"/>
	<path class="st139" d="M264.52,301.74c0.01-1.1,0.02-2.2,0.03-3.31c12.25,4.59,25.68,6.58,35.63,16.22
		C287.55,313.69,271.23,315.99,264.52,301.74z"/>
	<path class="st140" d="M484.9,321.52c87.3,62.39-104.74-27.5-121.06-36.07c-9.15-5.79-30.79-7.93-31.43-20.09
		c21.19-2.27,40.94,18.24,61.36,21.59c-9.63-11.19-29.38-10.46-35.59-27.68C401.65,272.25,441.33,304.6,484.9,321.52z"/>
	<path class="st141" d="M332.65,265.98c-0.04,1.15-0.08,2.3-0.12,3.46c-43.96-13.87-83.29-42.22-125.7-61.08
		c-30.39-8.33-10.09-39.56,14.04-34.15c45.49,29.75,96.42,53.72,141.2,85.07c-36.26,4.47-135.18-89.59-155.15-70.63
		C202.71,209.67,313.14,244.1,332.65,265.98z"/>
	<path class="st142" d="M497.9,343.95c21.22-4.2-5.53-11.43-9.69-19.39c20.39,4.36,35.72,19.99,55.16,25.77
		c10.01,12.62,27.61,13.04,37.5,26.42c-24.88-0.56-44.16-16.45-66.65-23.06C508.38,351.13,500,352.81,497.9,343.95z"/>
	<path class="st143" d="M183.36,301.7c2.23-0.03,4.47-0.06,6.7-0.1c52.22,2.56,109.26,31.77,158.78,52.05
		C292.69,340.62,237.25,322.42,183.36,301.7z"/>
	<path class="st144" d="M689.74,473.37c-3.52-11.5-20.16-3.85-29.41-6.78c-1.11-4.32-2.22-8.64-3.33-12.96
		C683.44,440.86,757.05,483.99,689.74,473.37z"/>
	<path class="st115" d="M711.69,464.24c-18.23-3.53-36.46-7.06-54.69-10.6c0.5-3.39-2.09-5.92-3.5-8.78
		C660.36,438.44,716.32,453.66,711.69,464.24z"/>
	<path class="st145" d="M718.52,434.67c3.44,5.12,1.08,8.24-3.63,10.55c-19.04-4.56-35.28-16.76-54.8-20.01
		c-1.15-1.06-2.3-2.12-3.45-3.18C673.25,401.81,700.04,428.72,718.52,434.67z"/>
	<path class="st146" d="M708.11,383.24c-26.86-15.67-50.92-35.74-77.5-51.97l0.05,0.04c-9.77-12.93-31.39-17.42-36.01-32.9
		c4.85-4.89,11.75,0.86,16.76-3.22c9.15,1.8,13.43,12.59,23.48,12.72c23.32,20.9,51.63,34.39,77.18,51.98
		c-16.4,7.07,2.54,11.89-0.02,22.55C710.74,382.7,709.43,382.97,708.11,383.24z"/>
	<path class="st147" d="M712.06,382.43c-4.3-6.88-16.78-13.61-11.76-22.64c3.22-4.93,7.77,1.28,11.78,0.09
		C726.48,361.82,731.16,385.33,712.06,382.43z"/>
	<path class="st148" d="M144.46,360.09c60.72,7.49,122.62,23.73,181.72,38.86c-6.49,0.01-12.98,0.01-19.48,0.02
		c-6.15,5.66-13.33,3.97-19.93,1.9c-41.32-12.95-84.24-19.24-125.92-30.61C154.65,368.56,146.28,369.3,144.46,360.09z"/>
	<path class="st149" d="M510.59,126.72c13.47,25.04,41.03,39.53,55.71,64.45c-5.57,29.52-49.13-42.51-64.88-42.25
		c-70.15-68.62-99.8-113.2,0.03-15.04c-19.59-31.24-56.96-54.19-68.8-88.55C461.03,63.93,481.96,103.9,510.59,126.72z"/>
	<path class="st150" d="M436.48,77.82c-0.03,1.11-0.06,2.22-0.09,3.33c-8.91-11.59-40.6-26.07-23.64-42.28
		c9.48-7.07,17.97-3.58,23.71,6.52c-1.1,0.02-2.2,0.05-3.29,0.07c-4.16,2.79-10.42-3.85-13.13,1.95
		C416.51,60.76,439.02,63.82,436.48,77.82z"/>
	<path class="st151" d="M543.46,256.24c-18.16-11.1-147.19-118.03-60.85-60.89c-1.27-3.34-4.34-6.9-0.72-10.57
		C498.38,187.58,616.7,300.14,543.46,256.24z"/>
	<path class="st152" d="M452.63,178.41c-0.05,1.17-0.1,2.33-0.16,3.5c-40.12-25.46-74.42-59.1-111.48-88.83
		c-5.55-4.78-15.48-8.51-8.83-19.09c21.2-25.49,47.88,10.35,62.21,26.47c-0.07,1.13-0.14,2.27-0.21,3.41
		c-17.16,0.3-31.68-35.68-46.86-26.59C345.98,103.61,439.4,150.35,452.63,178.41z"/>
	<path class="st153" d="M608.04,531.77c-11.57-7.85-24.98,19.33-32.02-2.95c10.01-2.41,19.62-5.94,29.22-9.65
		c0.87,1.81,1.48,3.81,2.67,5.37c1.69,2.22,7.08-1.47,6.68,3.49C614.47,529.45,610.33,530.54,608.04,531.77z"/>
	<path class="st154" d="M721.77,405.41c3.19,6.26,11.15,11.8,3,19.79c-3.57-0.3-7.34,0.08-10.1-2.96
		c-2.35-18.16-16.34-14.68-28.75-12.67c-17.36-10.77-34.73-21.54-52.09-32.3c7.04-16.26-11.81-13.99-9.16-27.23
		C656.29,369.86,687.96,389.5,721.77,405.41z"/>
	<path class="st155" d="M552.91,415.3c10.42-2.24,20.11,2.68,31.07,4.45c-2.33-13.23-15.24-11.15-21.02-17.81
		c28.38,4.29,54.71,15.12,81.17,25.5c3.44,5.05,7.53,9.97,3.15,16.52C617.34,430.15,581.04,431.23,552.91,415.3z"/>
	<path class="st156" d="M647.29,443.95c-0.73-5.57-4.45-10.56-3.15-16.52c3.09,0.3,6.17,0.6,9.26,0.9c0.2,0.94,0.31,1.88,0.34,2.84
		c2.77,4.14,8.95,6.64,6.39,13.33C655.81,444.93,651.55,444.81,647.29,443.95z"/>
	<path class="st157" d="M660.13,77.94c-55.86-59.06-36.02-96.46,9.83-13.14C666.46,69.01,664.05,74.04,660.13,77.94z"/>
	<path class="st158" d="M660.13,77.94c1.61-34.26,30.44,9.34,39.14,19.3c-13.03,11.99,9.2,20.27,3.19,32.29
		C683.31,117.2,673.89,95.47,660.13,77.94z"/>
	<path class="st159" d="M556.55,126.48c-1.07-2.2-2.15-4.41-3.22-6.61c4.6-4.17,14.16,4.05,16.22-6.48
		c39.74,43.82,77.66,89.04,123.29,126.45c-6.59,13.03,11.77,17.56,9.46,29.51c-3.12-1.17-6.23-2.33-9.35-3.5
		C646.89,219.94,599.36,175.69,556.55,126.48z"/>
	<path class="st160" d="M702.29,269.35c-5.15-8.2-27.66-22.92-9.46-29.51C742.65,249.53,734.22,298.68,702.29,269.35z"/>
	<path class="st161" d="M569.54,113.39c3.85,25.34-10.87,4.18-16.22,6.48c-8.51-10.93-19.6-19.76-26.19-32.24
		c4.67-4.03,12.02-0.87,16.29-6.45C554.07,90.37,562.06,101.57,569.54,113.39z"/>
	<path class="st162" d="M543.46,256.24c8.4-0.01,23.83,18.65,22.6,0.19c15.12,12.92,30.24,25.84,45.36,38.75
		c-2.95,13.11-10.85,1.49-16.08,3.22c-6.67,3.05-9.52,0.13-10.04-6.42C573.93,277.05,555,270.96,543.46,256.24z"/>
	<path class="st163" d="M702.41,324.37c-1.15,0.02-2.29,0.03-3.44,0.05c-39.06-28.68-78.17-57.3-110.43-93.97
		c2.8-3.81,6.29-6.91,10-9.79c32.51,30.6,64.38,61.67,103.35,84.39C695.39,311.67,704.63,317.87,702.41,324.37z"/>
	<path class="st164" d="M598.54,220.66c0.87,7.56-3.05,10.22-10,9.78c-11.6-10.11-23.92-19.38-32.23-32.56
		c4.81-0.04,8.1-2.32,9.98-6.72C581.05,195.14,587.97,210.61,598.54,220.66z"/>
	<path class="st165" d="M624.67,350.04c2.64,8.39,32.6,21.86,9.51,22.96c-17.28-10.8-34.56-21.61-51.84-32.41
		c20.46-1.36-0.97-11.17,3.19-15.82C600.49,330.23,612.62,340.06,624.67,350.04z"/>
	<path class="st166" d="M634.19,129.87c-10.23-6.11-116.21-134.78-65.66-112.74c25.16,33.92,51.55,68.94,75.51,102.87
		C638.75,121.28,636.6,125.71,634.19,129.87z"/>
	<path class="st167" d="M634.19,129.87c-8.76-37.66,41.67,20.63,48.75,28.95c-17.71,1.71-1.65,16.04-3.21,26.03
		C659.59,170.91,648.31,148.91,634.19,129.87z"/>
	<path class="st168" d="M702.41,324.37c-0.26-6.44-20.31-12.36-0.51-19.32c1.58,2.52,4.07,3.12,6.8,3.21
		c4.87,6.3,19.96,9.47,13.11,19.54C715.87,335.97,708.6,327.91,702.41,324.37z"/>
	<path class="st169" d="M702.45,129.53c-1.59-10.13-26.75-30.8-3.19-32.29c12.28,8.56,38.62,23.73,24.96,41.09
		C713.68,148.37,710.44,132.45,702.45,129.53z"/>
	<path class="st170" d="M452.63,178.41c-9.89-8.68-167.88-125.48-92.55-104c40.84,36.35,83.69,71.46,121.81,110.36
		c-0.85,7.37,7.6,9.82,8.91,17.32C474.12,199.71,466.14,184.43,452.63,178.41z"/>
	<path class="st171" d="M585.29,291.98c2.15,4.02,5.39,6.32,10.04,6.42c8.79,14.18,27.84,17.33,35.33,32.9
		c-19.05-10.35-35.94-24.5-51.85-39.13C580.98,292.11,583.13,292.05,585.29,291.98z"/>
	<path class="st172" d="M530.48,87.52c-1.12,0.04-2.23,0.07-3.35,0.11c-14.15-8.93-80.28-86.84-26.08-68.03
		c0.09,2.12,0.19,4.23,0.29,6.35C475.22,35.65,536.02,69.5,530.48,87.52z"/>
	<path class="st173" d="M708.73,207.7c-6.24-5.67-36.07-39.3-11.46-33.38c7.1,3.37,12.59,9.93,21.01,10.67
		C732.68,194.53,727.41,222.52,708.73,207.7z"/>
	<path class="st174" d="M530.48,87.52c-10.8-19.41-41.28-41.68-42.25-62.14c23.7-8.3,40.75,41.18,55.19,55.79
		C543.86,92.97,537.76,91.45,530.48,87.52z"/>
	<path class="st37" d="M708.73,207.7c17.01,3.12,18.58,0.78,12.98-19.37C739.88,197.63,720.63,227.59,708.73,207.7z"/>
	<path class="st175" d="M705.42,52.05c-6.65-10.59-17.61-22.54,3.51-23c8.68,8.06,28.88,20.62,16.06,32.78
		C715.17,70.38,711.13,57.35,705.42,52.05z"/>
	<path class="st176" d="M565.91,554.52c2.32-0.99,4.64-1.99,6.96-2.98c-0.01,20.93,16.15-9.92,25.66-0.16
		c-11.34,16.11-26.03,27.51-45.4,32.35c-2.75-13.8-14.55,14.3-25.99-3.17C538.25,569.17,552.01,561.74,565.91,554.52z"/>
	<path class="st176" d="M524.08,639.07c1.36-15.97-9.66-1.22-16.29,3.2c-1.12-3.31-2.23-6.62-3.35-9.93
		c9.9-13.46,22.59-25.49,35.71-35.55c16.07,7.32,34-39.04,49.57-24.04C568.92,593.58,544.93,616.19,524.08,639.07z"/>
	<path class="st171" d="M630.62,331.27c24.68,10.7,46.14,26.1,65.25,44.9C672.15,364.07,650.04,349.62,630.62,331.27z"/>
	<path class="st75" d="M588.67,573.91c-15.66-10.67-46.22,52.46-48.52,22.89c15.11-19.41,39.47-29.86,58.38-45.42
		C620.28,550.66,604.1,578.13,588.67,573.91z"/>
	<path class="st177" d="M543.28,875.8c34.76,32,70.43,62.89,108.48,90.98c4.8,3.54,12.09,8.48,5.98,15.72
		c-12.57,19.13-112.18-82.04-127.34-96.93C530.52,876.81,533.84,872.27,543.28,875.8z"/>
	<path class="st178" d="M543.28,875.8c-6.58,0.24-10.03,4.62-12.88,9.77C484.36,853.29,514.48,830.1,543.28,875.8z"/>
	<path class="st179" d="M644.04,684.38c1.93,1.24,3.86,2.48,5.79,3.72c30.37,59.92,98.99,91.49,155.98,122.03
		c13.23,12.64,154.8,52.99,81.41,59.07c-89.04-52.5-210.77-82.16-259.58-181.52c5.93,0.6,5.9,11.73,13.55,8.3
		C645.82,693.9,643.38,688.38,644.04,684.38z"/>
	<path class="st180" d="M598.31,635.71c-14.78,43.51,10.95,88.55,39.08,120.22c2.07,4.29,8.32,8.5,2.35,13.39
		c-28.77,1.77-56.15-59.14-59.13-85.74c-11.57-50.66,9.97-99.83,49.84-132.44c6.12,6.9,1.8,12.45-2.29,18.04
		C613.87,588.09,599.85,611.69,598.31,635.71z"/>
	<path class="st181" d="M588.67,573.91c9.46-4.83,28.01-14.83,10.27-22.34c19.19-11.99,35.9-28.14,57.23-36.54
		c0.66,0.9,1.31,1.81,1.97,2.71c-17.7,18.77-43.22,32.04-53.16,56.75c-2.84,11.3-12.62,23.35-22.28,29.73
		c-4.32,1.05-4.86-7.15-10.01-4.09c-0.7-8.46,10.34-11.17,9.61-19.65C584.42,578.29,586.54,576.1,588.67,573.91z"/>
	<path class="st182" d="M624.73,567.45c4.64-4.48,6.73-9.86,5.72-16.32c8.24-7.89,14.58-18,25.91-22.32
		c-5.78,22.67-23.98,40.24-25.82,64.59c-1.71,1.88-0.33,5.22-3.12,6.58c-4.62,3.88-2.1,10.34-5.4,14.8
		c-3.7,9.25-11.56,8.21-10.89-2.36C605.86,594.46,617.94,581.76,624.73,567.45z"/>
	<path class="st183" d="M643.98,502.71c1.09-2.07,2.18-4.15,3.26-6.22c13.91-0.1,27.72-8.55,41.74-0.54
		C673.98,497.87,659.04,502.24,643.98,502.71z"/>
	<path class="st184" d="M592.71,590.94c5.93-7.13,9.92-16.31,18.67-20.33c-2.8,10.28-9.67,18.07-16.03,26.17
		C593.32,595.35,593.27,593.03,592.71,590.94z"/>
	<path class="st185" d="M624.73,567.45c-3.45,15.32-14.29,28.4-13.6,44.97c-0.91,0.31-1.85,0.52-2.81,0.63
		c-0.92-2.05-1.85-4.11-2.77-6.16C608.84,592.24,612.95,577.98,624.73,567.45z"/>
	<path class="st186" d="M627.42,599.98c1.04-2.19,2.08-4.39,3.12-6.58c0.15,16.26,0.3,32.53,0.44,48.79
		C623.95,628.61,629.53,613.97,627.42,599.98z"/>
	<path class="st187" d="M643.65,622.98c-4.53-16.38-5.43-32.74,0.3-49.06C643.85,590.27,643.75,606.63,643.65,622.98z"/>
	<path class="st188" d="M527.32,707.18c-8.2,55.86,19.22,102.05,58.28,139.44c-0.7,9.59-5.95,9.98-13.11,6.48
		c-43.04-32.69-64.31-75.72-61.74-130.07c-6.29-11.97-0.78-21.26,6.84-30.08C528.89,692.18,530.26,698.2,527.32,707.18z"/>
	<path class="st189" d="M572.49,853.1c5.54,0.2,10.6-0.56,13.11-6.48c27.05,21.56,54.11,43.11,81.16,64.66
		c-6.8-0.07-12.51,1.34-13.16,9.66C624.46,900.85,596.65,879.16,572.49,853.1z"/>
	<path class="st190" d="M518.1,694.33c-3.22,9.37-7.26,18.53-7.36,28.71c-3.21,5.73-8.82,5.08-12.34,0.45
		c4.44-25.15,32.23-88.92,54.79-97.49C549.28,648.72,530.03,672.93,518.1,694.33z"/>
	<path class="st191" d="M552.83,628.98c4.1-7.39,20.26-40.17,28.9-25.53c2.45,9.25-4.74,13.43-9.79,18.74
		c-6.99,2.69-7.25,12.58-15.2,14.28C553.74,634.87,553.25,631.94,552.83,628.98z"/>
	<path class="st192" d="M553.15,742.77c-10.82-14.86-1.88-33.44-9.14-48.57c-2.76-6.97,4.24-12.45,2.91-19.2
		c7.3-4.59,9.71-14.76,18.91-16.56c-0.36,20.71-2.08,41.01-2.97,61.67C554.66,725.54,560.07,736.8,553.15,742.77z"/>
	<path class="st193" d="M552.83,628.98c10.72,15.61-19.48,58.74-25.51,78.2c-0.01-6.48-0.67-12.5-9.22-12.85
		C526.67,670.95,537.9,648.98,552.83,628.98z"/>
	<path class="st194" d="M542.8,667.51c5.2-17.12,11.74-38.6,27.79-47.76c-1.29,20.44-13.74,36.6-21,54.76
		c-0.9,0.12-1.79,0.28-2.67,0.49C546.43,672.01,545.79,669.11,542.8,667.51z"/>
	<path class="st195" d="M549.59,674.51c4.94-31.53,22.23-60.15,43.12-83.57c0.88,1.95,1.76,3.9,2.64,5.85c0,0,0.07-0.09,0.07-0.09
		c-12.44,19.44-17.29,42.09-29.59,61.76C559.65,663.03,560.7,674.92,549.59,674.51z"/>
	<path class="st196" d="M572.22,645.12c3.53-9.51,7.06-19.02,10.59-28.53c9.25-1.39-7.79,27-4.1,34.93c-0.88,0.28-1.78,0.48-2.7,0.6
		C575.43,649.42,575.05,646.61,572.22,645.12z"/>
	<path class="st197" d="M563.16,706.78c0.53-10.79-3.1-21.9,2.46-32.31c0.07,10.93,0.14,21.85,0.21,32.78
		C564.94,707.06,564.06,706.9,563.16,706.78z"/>
	<path class="st198" d="M760.58,846.49c138.43,57.05,91.66,84.8-12.97,9.91C751.55,852.6,761.09,856.12,760.58,846.49z"/>
	<path class="st199" d="M760.58,846.49c21.52,37.53-67.66-20.49-74.41-29.14c5.9-4.56,13.41,0.46,19.44-3.27
		C726.05,821.29,741.73,836.58,760.58,846.49z"/>
	<path class="st200" d="M767.19,934.34c-43.44-32.26-94.44-56.15-133.08-94.2c4.72-3.85,12-1.2,16.2-6.36
		c1.08-0.04,2.15,0,3.22,0.13c34.43,28.12,70.66,53.62,109.45,75.4C780.91,917.57,803.72,938.72,767.19,934.34z"/>
	<path class="st201" d="M517.64,849.72c-8.28,0.5-10.25,5.81-9.85,12.93c-14.31-15.62-47.29-64.58-24.19-80.25
		c10.64,2.72,7.05,18.5,14.22,25.4C497.95,824.76,513.93,834.46,517.64,849.72z"/>
	<path class="st202" d="M494.64,739.46c0.56,14.15-0.06,28.31-0.14,42.47c-4.51-4.72-2.45-10.78-3.29-16.24
		C493.2,757.06,488.43,747.54,494.64,739.46z"/>
	<path class="st203" d="M689.74,473.37c8.57-3.73,17.1-2.45,25.61,0.25c0.76,1.04,1.53,2.09,2.28,3.13
		c-3.18,5.46-32.72,6.04-31.89-2.92C687.07,473.67,688.41,473.52,689.74,473.37z"/>
	<path class="st204" d="M650.31,833.78c-5.11,40.11-100.2-71.29-97.16-91.01c3.3-7.52-7.85-21.24,9.7-22.66
		C574.9,768.37,611.76,804.74,650.31,833.78z"/>
	<path class="st205" d="M481.85,885.42c10.78,11.91,21.57,23.82,32.35,35.73c-6.03,3.84-13.73-1.93-19.5,3.4
		c-14.03-15.47-65.44-55.26-48.57-75.74C459.24,842.65,470.58,877.74,481.85,885.42z"/>
	<path class="st206" d="M494.7,924.55c3.92-15.94,12.87-3.05,19.51-3.4c12.06,7.19,19.82,19.09,29.25,29.2
		c-4.49,3.34-7.4,7.88-9.73,12.86C520.69,950.37,504.72,940.06,494.7,924.55z"/>
	<path class="st207" d="M705.61,814.08c-4.84,10.88-12.69,3.82-19.44,3.27c-22.86-14.25-44.94-30.72-61.5-51.98
		c7.99,1.9,19.48,8.52,12.73-9.45C659.89,775.71,682.3,795.35,705.61,814.08z"/>
	<path class="st208" d="M660.13,444.51c-1.76-4.62-7.13-7.51-6.39-13.33C720.69,445.14,753.42,480.26,660.13,444.51z"/>
	<path class="st209" d="M712.01,460.64c3.44-0.61,6.47-1.64,6.18-6.06c3.9-0.95,6.5,1.61,9.38,3.44c-2.1,10.2-10.43,3.86-15.61,5.89
		C711.98,462.83,712,461.74,712.01,460.64z"/>
	<path class="st210" d="M689.05,409.05c9.05-12.73,45.38,5.52,25.62,13.19C705.38,419.31,696.77,415.05,689.05,409.05z"/>
	<path class="st211" d="M533.72,963.22c-6.62-27.23,28.61-3.51,33.15,7.79c2.63,7,16.1,10.6,10.38,18.81
		c-6.2,8.88-13.3-4.16-20.76-3.91C548.41,978.84,539.59,972.51,533.72,963.22z"/>
	<path class="st212" d="M329.43,175.15c-11.63-13.16-70.42-34.94-58.55-52.95c5.61-6.85,13-7.55,20.07-2.75
		c43.33,48.26,110.34,70.69,148.73,121.49C397.79,222.66,368.8,195.14,329.43,175.15z"/>
	<path class="st213" d="M144.46,360.09c53.38,15.53,107.88,29.24,162.24,38.88c34.77,32.47-176-14.34-192.73-12.59
		c-8.88-0.99-12.64-5.56-11.28-13.93C103.6,349.37,129.3,358.75,144.46,360.09z"/>
	<path class="st132" d="M251.58,405.45c16.54-0.25,32.9,0.81,48.65,6.46C283.7,412.16,267.34,411.05,251.58,405.45z"/>
	<path class="st214" d="M319.66,340.59c-56.28-13.34-110.51-34.82-165.34-52.5c-6.56-2.88-17-3.66-12.88-15.93
		c17.31-38.33,90.68,30.23,123.09,29.58c7.41,6.82,19.25,4.67,25.99,12.84c17.26,13.01,39.76,12.16,56.44,26.7
		C337.25,347.81,328.53,337.97,319.66,340.59z"/>
	<path class="st215" d="M332.65,265.98c-39.94-15.88-75.89-40.06-115.1-57.73c-8.65-4.48-21.14-7.15-16.55-21.32
		c20.77-24.46,76.91,33.98,102.68,42.13c34.75,21.89,71.24,34.36,101.13,64.62C377.3,288.69,356.52,273.2,332.65,265.98z"/>
	<path class="st216" d="M436.48,77.82c-6.35-11.28-30.05-21.37-19.97-35.81c6.45-7.29,11.3,1.08,16.66,3.45
		c20.83,30.86,48.47,56.17,71.51,85.13c2.01,3.05,8.32,6.35,3.66,10.6C487.69,140.49,457.89,87.61,436.48,77.82z"/>
	<path class="st217" d="M585.74,619.63c-0.98-1.01-1.95-2.02-2.93-3.04c3.54-7.05,4.39-15.81,12.6-19.91
		C593.46,604.87,590.11,612.46,585.74,619.63z"/>
</g>
</svg>
